<?xml version="1.0" standalone="yes"?>
<svg xmlns="http://www.w3.org/2000/svg" width="100" height="99">
<path style="fill:#47704c; stroke:none;" d="M0 0L0 99L31 99C30.129 91.1013 37.8949 86.1051 43 81L81 43C85.9027 38.0973 90.6758 30.5638 98 30C94.6003 34.8263 90.1215 38.6327 86.1698 43C74.2808 56.1393 61.5328 68.4672 49 81C43.2203 86.7796 36.7141 92.3077 32 99L100 99L100 0L0 0z"/>
<path style="fill:#eb83f8; stroke:none;" d="M6 7L7 13C9.68662 11.6759 10.6759 10.6866 12 8L6 7M11 28C17.3594 25.0344 24.0344 18.3594 27 12C17.1611 9.68484 9.91749 18.5515 11 28M15 42C20.2213 39.5651 23.9616 35.0384 28 31C32.8193 26.1807 38.0689 21.5807 42 16C39.7439 15.3926 37.3241 14.4933 34.9985 15.3279C31.4287 16.6091 28.6016 20.3997 26 23C20.2206 28.7764 13.466 33.176 15 42M34 33C33.165 40.6763 23.2382 45.0561 20 52L19 50C18.2592 52.3934 18.6978 54.4926 19 57C24.6048 54.3863 28.6681 49.3322 33 45C40.8251 37.1743 49.6263 29.0482 56 20C45.6499 16.2461 41.2016 27.6037 34 33M23 71C30.0962 67.6908 35.5157 60.4843 41 55C50.918 45.082 62.9192 35.4717 71 24C63.6264 20.9757 60.0215 25.9807 55 31L32 54C26.651 59.3494 21.6047 62.9735 23 71M28 81L27 79C26.2592 81.3934 26.6978 83.4926 27 86C35.5162 82.0286 41.9642 72.8582 48.1698 66C56.0203 57.3238 64.725 49.275 73 41C77.3321 36.6679 82.3863 32.6049 85 27C76.9736 25.6047 73.3494 30.651 68 36C63.7895 40.2102 58.9691 44.2548 55.338 48.9853C52.703 52.4181 51.1293 55.8583 47.9915 59.0147C41.3882 65.6569 31.9912 72.4413 28 81M92 30C91.3692 35.7986 84.934 40.066 81 44C70.5766 54.4234 60.4338 67.3027 48.4244 75.8657C41.4958 80.806 29.0509 89.5215 31 99C37.3224 94.5464 42.5401 88.4599 48 83L75 56C82.4543 48.5428 93.5484 39.5459 98 30L92 30z"/>
<path style="fill:#fc8cff; stroke:none;" d="M48 77C56.535 70.9878 63.6259 62.3741 71 55C78.3741 47.6259 86.9878 40.535 93 32C87.7787 34.4349 84.0384 38.9616 80 43L61 62C56.3769 66.6231 50.7903 71.0166 48 77M19 52C24.6072 46.816 30.6017 41.2439 35 35C28.6152 37.9774 20.9341 45.1092 19 52M27 81C36.1673 72.5246 46.8122 63.2039 54 53C46.9047 56.3088 41.4825 63.515 36 69C32.3253 72.6763 28.4319 75.8985 27 81z"/>
</svg>
